<?xml version="1.0" encoding="UTF-8" standalone="no"?>
<svg
   width="512"
   height="512"
   viewBox="0 0 512 512"
   version="1.1"
   id="svg7"
   xmlns="http://www.w3.org/2000/svg"
   xmlns:svg="http://www.w3.org/2000/svg">
  <defs
     id="defs11" />
  <g
     id="Logo"
     transform="scale(8.5333333)">
    <path
       d="m 27.2463,21.7077 c -0.8977,-0.8977 -2.3534,-0.8977 -3.2513,0 L 10.6617,35.0411 c -0.89749,0.8977 -0.89749,2.3533 0,3.2512 0.4489,0.4488 1.0375,0.6731 1.6257,0.6731 0.5883,0 1.1766,-0.2243 1.6255,-0.6731 L 27.2463,24.959 c 0.8977,-0.8979 0.8977,-2.3536 0,-3.2513"
       id="Fill-1"
       fill="#a8e490"
       fill-rule="evenodd"
       stroke="none" />
    <path
       d="m 38.2923,21.7077 c -0.8977,-0.8977 -2.3534,-0.8977 -3.2513,0 L 21.7077,35.0411 c -0.8975,0.8977 -0.8975,2.3533 0,3.2512 0.4489,0.4488 1.0374,0.6731 1.6257,0.6731 0.5883,0 1.1766,-0.2243 1.6255,-0.6731 L 38.2923,24.959 c 0.8977,-0.8979 0.8977,-2.3536 0,-3.2513"
       id="Fill-3"
       fill="#a8e490"
       fill-rule="evenodd"
       stroke="none" />
    <path
       d="M 46.0871,21.7077 32.7537,35.0411 c -0.8977,0.8977 -0.8977,2.3533 0,3.2512 0.449,0.4488 1.0373,0.6731 1.6255,0.6731 0.5883,0 1.1768,-0.2243 1.6258,-0.6731 L 49.3383,24.959 c 0.8975,-0.8979 0.8975,-2.3536 0,-3.2513 -0.8979,-0.8977 -2.3535,-0.8977 -3.2512,0"
       id="Fill-5"
       fill="#a8e490"
       fill-rule="evenodd"
       stroke="none" />
    <path
       d="M 30,55.4023 C 15.9931,55.4023 4.5977,44.0069 4.5977,30 4.5977,15.9931 15.9931,4.5977 30,4.5977 44.0069,4.5977 55.4023,15.9931 55.4023,30 55.4023,44.0069 44.0069,55.4023 30,55.4023 M 30,0 C 13.4579,0 0,13.4579 0,30 0,46.5421 13.4579,60 30,60 46.5421,60 60,46.5421 60,30 60,13.4579 46.5421,0 30,0"
       id="Fill-7"
       fill="#a8e490"
       fill-rule="evenodd"
       stroke="none" />
  </g>
</svg>
